<?xml version="1.0" encoding="UTF-8" standalone="no"?>
<svg
   xmlns:dc="http://purl.org/dc/elements/1.1/"
   xmlns:cc="http://creativecommons.org/ns#"
   xmlns:rdf="http://www.w3.org/1999/02/22-rdf-syntax-ns#"
   xmlns:svg="http://www.w3.org/2000/svg"
   xmlns="http://www.w3.org/2000/svg"
   xmlns:sodipodi="http://sodipodi.sourceforge.net/DTD/sodipodi-0.dtd"
   xmlns:inkscape="http://www.inkscape.org/namespaces/inkscape"
   inkscape:version="1.0 (4035a4fb49, 2020-05-01)"
   sodipodi:docname="tinlake.svg"
   id="svg96"
   preserveAspectRatio="xMidYMid meet"
   viewBox="0 0 128.000000 128.000000"
   height="128.000000pt"
   width="128.000000pt"
   version="1.0">
  <metadata
     id="metadata102">
    <rdf:RDF>
      <cc:Work
         rdf:about="">
        <dc:format>image/svg+xml</dc:format>
        <dc:type
           rdf:resource="http://purl.org/dc/dcmitype/StillImage" />
      </cc:Work>
    </rdf:RDF>
  </metadata>
  <defs
     id="defs100" />
  <sodipodi:namedview
     inkscape:current-layer="g94"
     inkscape:window-maximized="1"
     inkscape:window-y="23"
     inkscape:window-x="0"
     inkscape:cy="85.333333"
     inkscape:cx="47.352601"
     inkscape:zoom="5.0683594"
     showgrid="false"
     id="namedview98"
     inkscape:window-height="1055"
     inkscape:window-width="1918"
     inkscape:pageshadow="2"
     inkscape:pageopacity="0"
     guidetolerance="10"
     gridtolerance="10"
     objecttolerance="10"
     borderopacity="1"
     bordercolor="#666666"
     pagecolor="#ffffff" />
  <g
     id="g94"
     stroke="none"
     fill="#000000"
     transform="matrix(0.1,0,0,-0.1,-3.2371296,104.63533)">
    <path
       style="fill:#0728be;fill-opacity:1"
       id="path92"
       d="M 720,840 V 800 H 640 560 V 760 720 H 520 480 V 680 640 H 400 320 V 600 560 H 280 240 V 520 480 H 200 160 V 440 400 H 120 80 v -80 -80 h 40 40 v -40 -40 h 80 80 V 120 80 H 440 560 V 40 0 h 160 160 v 40 40 h 80 80 v 40 40 h 80 80 v 40 40 h 40 40 v 160 160 h -40 -40 v 80 80 h -40 -40 v 40 40 h -80 -80 v 40 40 H 840 720 Z M 1000,520 V 480 H 960 920 V 360 240 h -40 -40 v 120 120 h -40 -40 v 40 40 h 120 120 z" />
  </g>
</svg>
